<svg id="1e5cbff8-14f3-4082-88d9-a53149edcc52" data-name="Layer 1" xmlns="http://www.w3.org/2000/svg" viewBox="0 0 134 26"><title>Artboard 1</title><rect width="134" height="26" rx="3" ry="3" style="fill:#6e7177"/><path d="M105,0h26a3,3,0,0,1,3,3V23a3,3,0,0,1-3,3H105V0Z" style="fill:#fff"/><path d="M131,1a2,2,0,0,1,2,2V23a2,2,0,0,1-2,2H106V1h25m0-1H105V26h26a3,3,0,0,0,3-3V3A3,3,0,0,0,131,0Z" style="fill:#6e7177"/><rect x="111" y="4" width="18" height="18" rx="3" ry="3" style="fill:#fff"/><path d="M126,5a2,2,0,0,1,2,2V19a2,2,0,0,1-2,2H114a2,2,0,0,1-2-2V7a2,2,0,0,1,2-2h12m0-1H114a3,3,0,0,0-3,3V19a3,3,0,0,0,3,3h12a3,3,0,0,0,3-3V7A3,3,0,0,0,126,4Z" style="fill:#6e7177"/><rect x="110" y="6.5" width="2" height="1" style="fill:#d10"/><rect x="110" y="8.5" width="2" height="1" style="fill:#d10"/><rect x="110" y="10.5" width="2" height="1" style="fill:#d10"/><rect x="110" y="12.5" width="2" height="1" style="fill:#d10"/><rect x="110" y="14.5" width="2" height="1" style="fill:#d10"/><rect x="110" y="16.5" width="2" height="1" style="fill:#d10"/><rect x="110" y="18.5" width="2" height="1" style="fill:#d10"/><path d="M120.26,14.47a3.21,3.21,0,0,0,1.34-1.2V13.2a1.34,1.34,0,0,0-1.4-1.28h0a1.28,1.28,0,0,0-.48.14C120.68,11.92,121.23,13.56,120.26,14.47Z" style="fill:#d10"/><path d="M117,13.26a3.25,3.25,0,0,0,2.23,3.12h.16a3.29,3.29,0,0,0,2.28-3,2.7,2.7,0,0,1-2.22,1.41A3,3,0,0,1,117,13.26Z" style="fill:#d10"/><path d="M119,16.45c-3.25-.68-3.7-8.08,2.87-8.47a5.86,5.86,0,0,0-3-1,3.66,3.66,0,0,0-2.09.67c-3.63,2.64-2.83,8.81,1.69,8.81H119Z" style="fill:#d10"/><path d="M119.75,11.59a3.21,3.21,0,0,0-1.34,1.2v.07a1.34,1.34,0,0,0,1.4,1.28h0a1.28,1.28,0,0,0,.48-.14c-.93.13-1.48-1.51-.51-2.42Z" style="fill:#d10"/><path d="M122.9,12.57a3,3,0,0,0-2.12-2.95h-.16a3.29,3.29,0,0,0-2.28,3,2.7,2.7,0,0,1,2.22-1.41,3,3,0,0,1,2.34,1.4Z" style="fill:#d10"/><path d="M121.52,9.52H121c3.25.68,3.35,7.93-2.87,8.47a5.86,5.86,0,0,0,3,1,3.66,3.66,0,0,0,2.09-.67C126.85,15.69,126,9.52,121.52,9.52Z" style="fill:#d10"/><path d="M26,10.23h1.19L28.48,14c.2.65.42,1.32.63,1.94h.06c.2-.63.42-1.29.62-1.94l1.29-3.75H32.2l-2.41,6.6H28.45Z" style="fill:#fff"/><path d="M33.31,8.15a.8.8,0,0,1,1.6,0,.8.8,0,0,1-1.6,0Zm.21,2.08h1.15v6.6H33.52Z" style="fill:#fff"/><path d="M39.51,10.07c1.74,0,2.72,1.21,2.72,3.1a3.85,3.85,0,0,1,0,.61H37.59a2.23,2.23,0,0,0,2.27,2.32,3.14,3.14,0,0,0,1.69-.52l.41.73a4.14,4.14,0,0,1-2.24.68,3.2,3.2,0,0,1-3.26-3.45A3.22,3.22,0,0,1,39.51,10.07Zm1.71,3c0-1.35-.62-2.09-1.68-2.09a2.09,2.09,0,0,0-2,2.09Z" style="fill:#fff"/><path d="M43.16,10.23h1.18l1,3.82c.15.62.28,1.22.41,1.83h.06c.15-.61.29-1.22.46-1.83l1.05-3.82h1.12l1.06,3.82c.17.62.32,1.22.48,1.83H50c.15-.61.28-1.21.42-1.83l1-3.82h1.09l-1.82,6.6h-1.4l-1-3.55c-.17-.63-.29-1.24-.46-1.9h-.06c-.15.67-.29,1.29-.48,1.92l-1,3.53H45Z" style="fill:#fff"/><path d="M59.62,10.07a2.85,2.85,0,0,1,2,.79l-.57.72A2.09,2.09,0,0,0,59.66,11a2.27,2.27,0,0,0-2.13,2.55c0,1.51.85,2.53,2.1,2.53a2.46,2.46,0,0,0,1.6-.67l.52.73a3.42,3.42,0,0,1-2.21.86,3.14,3.14,0,0,1-3.19-3.45A3.24,3.24,0,0,1,59.62,10.07Z" style="fill:#fff"/><path d="M65.4,10.07a2.85,2.85,0,0,1,1.9.76L67.25,9.7V7.16h1.16v9.67h-1l-.1-.77h0a3.11,3.11,0,0,1-2.06.94c-1.71,0-2.81-1.25-2.81-3.45S63.84,10.07,65.4,10.07Zm.11,6a2.33,2.33,0,0,0,1.74-.91V11.7A2.41,2.41,0,0,0,65.59,11c-1.09,0-2,1-2,2.53S64.32,16.06,65.51,16.06Z" style="fill:#fff"/><path d="M73.77,8.07A2,2,0,0,0,73,7.91c-.64,0-1,.43-1,1.28v1h1.44v.91H72v5.69H70.9V11.14H70V10.3l.92-.07v-1c0-1.35.63-2.19,2-2.19A3.17,3.17,0,0,1,74,7.22Z" style="fill:#fff"/><path d="M74.55,15.34a3.11,3.11,0,0,0,2,.79c.9,0,1.34-.46,1.34-1s-.81-1-1.55-1.25c-1-.34-2-.79-2-1.9s.87-1.87,2.34-1.87a3.46,3.46,0,0,1,2.11.75l-.55.71a2.57,2.57,0,0,0-1.55-.58c-.85,0-1.25.45-1.25,1s.74.86,1.51,1.14c1,.35,2.07.75,2.07,2,0,1.07-.88,2-2.49,2A4.17,4.17,0,0,1,74,16.09Z" style="fill:#fff"/></svg>