<svg xmlns="http://www.w3.org/2000/svg" width="134" height="26" viewBox="0 0 134 26">
  <title>Artboard 1 copy</title>
  <rect width="134" height="26" rx="3" ry="3" style="fill: #6e7177"/>
  <path d="M105,0h26a3,3,0,0,1,3,3V23a3,3,0,0,1-3,3H105a0,0,0,0,1,0,0V0A0,0,0,0,1,105,0Z" style="fill: #fff"/>
  <path d="M131,1a2,2,0,0,1,2,2V23a2,2,0,0,1-2,2H106V1h25m0-1H105V26h26a3,3,0,0,0,3-3V3a3,3,0,0,0-3-3Z" style="fill: #6e7177"/>
  <g>
    <rect x="111" y="4" width="18" height="18" rx="3" ry="3" style="fill: #fff"/>
    <path d="M126,5a2,2,0,0,1,2,2V19a2,2,0,0,1-2,2H114a2,2,0,0,1-2-2V7a2,2,0,0,1,2-2h12m0-1H114a3,3,0,0,0-3,3V19a3,3,0,0,0,3,3h12a3,3,0,0,0,3-3V7a3,3,0,0,0-3-3Z" style="fill: #6e7177"/>
  </g>
  <rect x="110" y="6.5" width="2" height="1" style="fill: #d10"/>
  <rect x="110" y="8.5" width="2" height="1" style="fill: #d10"/>
  <rect x="110" y="10.5" width="2" height="1" style="fill: #d10"/>
  <rect x="110" y="12.5" width="2" height="1" style="fill: #d10"/>
  <rect x="110" y="14.5" width="2" height="1" style="fill: #d10"/>
  <rect x="110" y="16.5" width="2" height="1" style="fill: #d10"/>
  <rect x="110" y="18.5" width="2" height="1" style="fill: #d10"/>
  <g>
    <path d="M30,10.23h1.2L32.49,14l.32,1,.32,1h.06l.31-1,.31-1,1.3-3.75h1.14l-2.42,6.6H32.46Z" style="fill: #fff"/>
    <path d="M38.12,8.87a.84.84,0,0,1-.57-.2.7.7,0,0,1,0-1,.92.92,0,0,1,1.14,0,.7.7,0,0,1,0,1A.83.83,0,0,1,38.12,8.87Zm-.59,1.36h1.15v6.6H37.53Z" style="fill: #fff"/>
    <path d="M40.35,13.55a3.87,3.87,0,0,1,.26-1.46A3.37,3.37,0,0,1,41.3,11a3,3,0,0,1,1-.69,2.83,2.83,0,0,1,1.14-.24,3,3,0,0,1,1.16.22,2.26,2.26,0,0,1,.86.63,2.84,2.84,0,0,1,.53,1,4.17,4.17,0,0,1,.18,1.28,3.65,3.65,0,0,1,0,.61H41.49a2.57,2.57,0,0,0,.68,1.7,2.14,2.14,0,0,0,1.6.63,2.76,2.76,0,0,0,.91-.14,4,4,0,0,0,.8-.37l.41.73a5.87,5.87,0,0,1-1,.48,3.6,3.6,0,0,1-1.25.2,3.46,3.46,0,0,1-1.29-.24,3.06,3.06,0,0,1-1-.68A3.12,3.12,0,0,1,40.6,15,3.9,3.9,0,0,1,40.35,13.55Zm4.79-.5a2.38,2.38,0,0,0-.44-1.56A1.53,1.53,0,0,0,43.44,11a1.74,1.74,0,0,0-.7.14,1.94,1.94,0,0,0-.6.41,2.17,2.17,0,0,0-.44.65,2.92,2.92,0,0,0-.23.89Z" style="fill: #fff"/>
    <path d="M46.93,10.23h1.18l1,3.82q.11.48.21.92l.2.91h.06l.22-.92c.07-.3.16-.61.24-.92l1.06-3.82h1.13l1.07,3.82.25.92c.08.3.16.6.23.91h.06c.07-.31.15-.61.21-.91s.14-.61.21-.92l1-3.82h1.1l-1.83,6.6H53.13l-1-3.55c-.08-.32-.16-.63-.23-.94s-.15-.63-.23-1h-.06q-.11.5-.22,1t-.25.94l-1,3.53H48.84Z" style="fill: #fff"/>
    <path d="M60.2,13.55a3.82,3.82,0,0,1,.27-1.47A3.3,3.3,0,0,1,61.19,11a3,3,0,0,1,1-.68,3.48,3.48,0,0,1,1.26-.23,2.61,2.61,0,0,1,1.16.24,3.69,3.69,0,0,1,.84.55l-.58.72a3.24,3.24,0,0,0-.64-.42,1.65,1.65,0,0,0-.74-.16,2,2,0,0,0-.86.18,1.93,1.93,0,0,0-.68.52,2.57,2.57,0,0,0-.44.81,3.16,3.16,0,0,0-.16,1,3.21,3.21,0,0,0,.16,1,2.47,2.47,0,0,0,.43.8,1.88,1.88,0,0,0,.67.52,2.12,2.12,0,0,0,1.75,0,3.24,3.24,0,0,0,.71-.47l.52.73a3.76,3.76,0,0,1-1,.62,3.13,3.13,0,0,1-1.19.23,3.44,3.44,0,0,1-1.27-.23,2.86,2.86,0,0,1-1-.67A3.15,3.15,0,0,1,60.45,15,4.08,4.08,0,0,1,60.2,13.55Z" style="fill: #fff"/>
    <path d="M66.47,13.55a4,4,0,0,1,.25-1.45A3.4,3.4,0,0,1,67.37,11a2.88,2.88,0,0,1,.94-.69,2.68,2.68,0,0,1,1.13-.24,2.4,2.4,0,0,1,1,.2,4.63,4.63,0,0,1,.89.56L71.3,9.7V7.16h1.17v9.67h-1l-.1-.77h0a4.32,4.32,0,0,1-.94.66A2.39,2.39,0,0,1,69.3,17a2.58,2.58,0,0,1-2.06-.9A3.82,3.82,0,0,1,66.47,13.55Zm1.2,0a3.07,3.07,0,0,0,.49,1.86,1.63,1.63,0,0,0,1.39.67,1.89,1.89,0,0,0,.9-.22,3.2,3.2,0,0,0,.84-.69V11.7a2.94,2.94,0,0,0-.84-.54,2.25,2.25,0,0,0-.82-.16,1.66,1.66,0,0,0-.77.18,1.92,1.92,0,0,0-.63.52,2.54,2.54,0,0,0-.42.8A3.24,3.24,0,0,0,67.67,13.53Z" style="fill: #fff"/>
    <path d="M77.75,8.07A2,2,0,0,0,77,7.91q-1,0-1,1.28v1h1.45v.91H76v5.69H74.86V11.14h-.93V10.3l.93-.07v-1a2.43,2.43,0,0,1,.49-1.6A1.86,1.86,0,0,1,76.86,7a3,3,0,0,1,.61.06,3.26,3.26,0,0,1,.53.16Z" style="fill: #fff"/>
  </g>
  <g>
    <path d="M120.26,14.47a3.21,3.21,0,0,0,1.34-1.2l0-.07a1.34,1.34,0,0,0-1.41-1.28,1.28,1.28,0,0,0-.48.14C120.68,11.92,121.23,13.56,120.26,14.47Z" style="fill: #d10"/>
    <path d="M117,13.26a3.25,3.25,0,0,0,2.23,3.12l.16,0a3.29,3.29,0,0,0,2.28-3,2.7,2.7,0,0,1-2.22,1.41A3,3,0,0,1,117,13.26Z" style="fill: #d10"/>
    <path d="M119,16.45c-3.25-.68-3.7-8.08,2.87-8.47a5.86,5.86,0,0,0-3-1,3.66,3.66,0,0,0-2.09.67c-3.63,2.64-2.83,8.81,1.69,8.81l.48,0Z" style="fill: #d10"/>
    <path d="M119.75,11.59a3.21,3.21,0,0,0-1.34,1.2l0,.07a1.34,1.34,0,0,0,1.41,1.28,1.28,1.28,0,0,0,.48-.14c-.93.13-1.48-1.51-.51-2.42Z" style="fill: #d10"/>
    <path d="M122.9,12.57a3,3,0,0,0-2.12-2.95l-.16,0a3.29,3.29,0,0,0-2.28,3,2.7,2.7,0,0,1,2.22-1.41,3,3,0,0,1,2.34,1.4Z" style="fill: #d10"/>
    <path d="M121.52,9.52l-.48,0c3.25.68,3.35,7.93-2.87,8.47a5.86,5.86,0,0,0,3,1,3.66,3.66,0,0,0,2.09-.67C126.85,15.69,126,9.52,121.52,9.52Z" style="fill: #d10"/>
  </g>
</svg>
