<svg id="2dd1dd53-d28c-41b3-a9ae-d63a496acc85" data-name="Layer 1" xmlns="http://www.w3.org/2000/svg" viewBox="0 0 134 26"><title>Artboard 1</title><rect width="134" height="26" rx="3" ry="3" style="fill:#6e7177"/><path d="M105,0h26a3,3,0,0,1,3,3V23a3,3,0,0,1-3,3H105V0Z" style="fill:#fff"/><path d="M131,1a2,2,0,0,1,2,2V23a2,2,0,0,1-2,2H106V1h25m0-1H105V26h26a3,3,0,0,0,3-3V3A3,3,0,0,0,131,0Z" style="fill:#6e7177"/><rect x="111" y="4" width="18" height="18" rx="3" ry="3" style="fill:#fff"/><path d="M126,5a2,2,0,0,1,2,2V19a2,2,0,0,1-2,2H114a2,2,0,0,1-2-2V7a2,2,0,0,1,2-2h12m0-1H114a3,3,0,0,0-3,3V19a3,3,0,0,0,3,3h12a3,3,0,0,0,3-3V7A3,3,0,0,0,126,4Z" style="fill:#6e7177"/><rect x="110" y="6.5" width="2" height="1" style="fill:#d10"/><rect x="110" y="8.5" width="2" height="1" style="fill:#d10"/><rect x="110" y="10.5" width="2" height="1" style="fill:#d10"/><rect x="110" y="12.5" width="2" height="1" style="fill:#d10"/><rect x="110" y="14.5" width="2" height="1" style="fill:#d10"/><rect x="110" y="16.5" width="2" height="1" style="fill:#d10"/><rect x="110" y="18.5" width="2" height="1" style="fill:#d10"/><path d="M126,15l-1.75-2,1.68-1.92-2.38-.45.22-2.45-2.39.92L120.18,7l-1.33,2.09-2.38-1,.27,2.56-2.43.43,1.76,1.77L114,14.78l2.76.43-.43,2.7,2.45-1.24L120,19l1.27-2.32,2.25,1.17-.05-2.52Zm-5.84-7.36.92,1.63-1,1.29-.92-1.3Zm-1.13,7,1-1.39,1.08,1.35L120,16.11ZM120.21,11l1.78-.72v1.94l-1.74.54Zm2.13.82V10.1l1-1.11-.15,1.73Zm-.26.74L123.19,14l-1.77.47-1.07-1.35Zm1.4,1.69,1.47.56-1.61.19L122,14.64Zm.43-1.08L125,14.48l-1.41-.54-1-1.22Zm.05-.35-1.52-.55,1-1.29,1.83.34Zm-1-4-.88,1-1.5.61.8-1Zm-3.1,3.88-1.65-.65-.06-1.75,1.69.67Zm-3.27,1.41,1.52.5-1.17.23-1.81-.28Zm1.48-4.22-.88-1.14,1.59.65.76,1.07Zm-.3.19.06,1.55-.74-.92L116.92,9Zm-.93.89.91,1.13-1.4.54L115,11.33Zm-.44,2,1.07-.41-1,1.21-1.44.45Zm.7,2.18,1.53-.31v1.42l-1.88,1Zm-.19-1.32,1.18-1.46,1.67.66-1,1.4Zm4.61,1,1.63.45v2l-1.77-.92Zm-2.52.42.88,1.27v1.39L119,16.38Zm1.22,2.65V16.5l.9-1.27L121,16.37Z" style="fill:#d10;stroke:#d10;stroke-miterlimit:10;stroke-width:0.25px"/><path d="M7,10.12H8.18l1.28,3.81c.19.66.42,1.34.62,2h.06c.19-.64.42-1.31.61-2L12,10.12h1.13l-2.39,6.71H9.43Z" style="fill:#fff"/><path d="M14.25,8a.79.79,0,0,1,1.58,0,.79.79,0,0,1-1.58,0Zm.21,2.11h1.14v6.71H14.45Z" style="fill:#fff"/><path d="M20.4,10c1.72,0,2.69,1.23,2.69,3.15a4,4,0,0,1,0,.62H18.49a2.24,2.24,0,0,0,2.25,2.36,3.06,3.06,0,0,0,1.68-.52l.4.75A4,4,0,0,1,20.6,17a3.22,3.22,0,0,1-3.24-3.51A3.24,3.24,0,0,1,20.4,10Zm1.69,3c0-1.37-.61-2.13-1.67-2.13A2.1,2.1,0,0,0,18.48,13Z" style="fill:#fff"/><path d="M24,10.12h1.17l1,3.88c.15.64.28,1.24.4,1.86h.06c.15-.62.29-1.24.46-1.86l1-3.88h1.11L30.31,14c.17.64.32,1.24.47,1.86h.06c.15-.62.28-1.23.42-1.86l1-3.88h1.08l-1.81,6.71H30.13l-1-3.61c-.17-.64-.29-1.26-.46-1.93h-.06c-.15.68-.29,1.31-.47,1.95l-.94,3.59H25.89Z" style="fill:#fff"/><path d="M37.59,10.12h.94l.1,1h0A3.19,3.19,0,0,1,40.94,10c1.42,0,2.06.91,2.06,2.62v4.25H41.86v-4.1c0-1.26-.39-1.8-1.28-1.8-.69,0-1.17.36-1.85,1v4.86H37.59Z" style="fill:#fff"/><path d="M47.81,10a3.21,3.21,0,0,1,3.12,3.54,3.15,3.15,0,1,1-6.25,0A3.21,3.21,0,0,1,47.81,10Zm0,6.11c1.17,0,1.94-1,1.94-2.57s-.78-2.6-1.94-2.6-1.94,1-1.94,2.6S46.66,16.06,47.81,16.06Z" style="fill:#fff"/><path d="M52.9,11h-1v-.86L53,10.12l.14-1.88h1v1.88h1.82V11H54.05v3.73c0,.83.26,1.3,1,1.3a2.46,2.46,0,0,0,.76-.18l.22.86a4.2,4.2,0,0,1-1.25.25c-1.44,0-1.93-.91-1.93-2.24Z" style="fill:#fff"/><path d="M59.79,10c1.72,0,2.69,1.23,2.69,3.15a4,4,0,0,1,0,.62H57.89a2.24,2.24,0,0,0,2.25,2.36,3.06,3.06,0,0,0,1.68-.52l.4.75A4,4,0,0,1,60,17a3.22,3.22,0,0,1-3.24-3.51A3.24,3.24,0,0,1,59.79,10Zm1.69,3c0-1.37-.61-2.13-1.67-2.13A2.1,2.1,0,0,0,57.87,13Z" style="fill:#fff"/><path d="M64.14,7h1.14V9.68l0,1.22A3.34,3.34,0,0,1,67.37,10C69.12,10,70,11.3,70,13.37,70,15.66,68.67,17,67.13,17a3.06,3.06,0,0,1-1.93-.83h0l-.1.66h-.92Zm2.79,9c1.11,0,1.93-1,1.93-2.67,0-1.48-.5-2.47-1.78-2.47a2.79,2.79,0,0,0-1.81.91v3.52A2.65,2.65,0,0,0,66.94,16Z" style="fill:#fff"/><path d="M74.47,10a3.22,3.22,0,0,1,3.13,3.54,3.15,3.15,0,1,1-6.25,0A3.21,3.21,0,0,1,74.47,10Zm0,6.11c1.17,0,1.94-1,1.94-2.57s-.78-2.6-1.94-2.6-1.94,1-1.94,2.6S73.32,16.06,74.47,16.06Z" style="fill:#fff"/><path d="M82,10a3.22,3.22,0,0,1,3.13,3.54,3.15,3.15,0,1,1-6.25,0A3.21,3.21,0,0,1,82,10Zm0,6.11c1.17,0,1.94-1,1.94-2.57s-.78-2.6-1.94-2.6-1.94,1-1.94,2.6S80.84,16.06,82,16.06Z" style="fill:#fff"/><path d="M86.89,7H88v6.66h0l2.87-3.54H92.2l-2.26,2.69,2.57,4H91.25l-2-3.23L88,15.07v1.77H86.89Z" style="fill:#fff"/><path d="M93.58,15.31a3,3,0,0,0,2,.8c.89,0,1.33-.47,1.33-1s-.81-1-1.54-1.27c-1-.34-2-.8-2-1.93S94.21,10,95.67,10a3.38,3.38,0,0,1,2.1.76l-.54.72a2.51,2.51,0,0,0-1.54-.59c-.85,0-1.24.46-1.24,1s.74.87,1.5,1.16c1,.36,2.06.76,2.06,2,0,1.09-.88,2-2.47,2A4.07,4.07,0,0,1,93,16.07Z" style="fill:#fff"/></svg>