<svg xmlns="http://www.w3.org/2000/svg" width="134" height="26" viewBox="0 0 134 26">
  <title>Artboard 1</title>
  <rect width="134" height="26" rx="3" ry="3" style="fill: #6e7177"/>
  <path d="M105,0h26a3,3,0,0,1,3,3V23a3,3,0,0,1-3,3H105a0,0,0,0,1,0,0V0A0,0,0,0,1,105,0Z" style="fill: #fff"/>
  <path d="M131,1a2,2,0,0,1,2,2V23a2,2,0,0,1-2,2H106V1h25m0-1H105V26h26a3,3,0,0,0,3-3V3a3,3,0,0,0-3-3Z" style="fill: #6e7177"/>
  <g>
    <rect x="111" y="4" width="18" height="18" rx="3" ry="3" style="fill: #fff"/>
    <path d="M126,5a2,2,0,0,1,2,2V19a2,2,0,0,1-2,2H114a2,2,0,0,1-2-2V7a2,2,0,0,1,2-2h12m0-1H114a3,3,0,0,0-3,3V19a3,3,0,0,0,3,3h12a3,3,0,0,0,3-3V7a3,3,0,0,0-3-3Z" style="fill: #6e7177"/>
  </g>
  <g>
    <path d="M11,10.12h1.18l1.28,3.81.31,1,.31,1h.06l.31-1,.31-1L16,10.12h1.13l-2.39,6.71H13.43Z" style="fill: #fff"/>
    <path d="M19,8.74a.81.81,0,0,1-.56-.21.72.72,0,0,1,0-1.06.89.89,0,0,1,1.13,0,.72.72,0,0,1,0,1.06A.81.81,0,0,1,19,8.74Zm-.58,1.38h1.14v6.71H18.45Z" style="fill: #fff"/>
    <path d="M21.24,13.49A4,4,0,0,1,21.49,12a3.46,3.46,0,0,1,.68-1.11,3,3,0,0,1,1-.7A2.73,2.73,0,0,1,24.27,10a2.85,2.85,0,0,1,1.15.22,2.25,2.25,0,0,1,.85.64,2.92,2.92,0,0,1,.52,1A4.35,4.35,0,0,1,27,13.1a3.86,3.86,0,0,1,0,.62H22.36A2.66,2.66,0,0,0,23,15.45a2.08,2.08,0,0,0,1.58.64,2.68,2.68,0,0,0,.9-.15,4,4,0,0,0,.79-.38l.4.75a5.78,5.78,0,0,1-1,.48,3.45,3.45,0,0,1-1.24.21,3.31,3.31,0,0,1-1.27-.24,3,3,0,0,1-1-.69,3.19,3.19,0,0,1-.69-1.1A4.08,4.08,0,0,1,21.24,13.49ZM26,13a2.48,2.48,0,0,0-.44-1.58,1.49,1.49,0,0,0-1.23-.55,1.67,1.67,0,0,0-.69.15,1.9,1.9,0,0,0-.59.41,2.21,2.21,0,0,0-.44.66,3,3,0,0,0-.23.9Z" style="fill: #fff"/>
    <path d="M27.75,10.12h1.17l1,3.88c.07.32.14.64.21.94l.19.93h.06l.22-.93q.11-.46.24-.93l1-3.88H33L34,14l.24.94q.12.46.23.93h.06q.11-.47.21-.93c.07-.3.13-.62.21-.94l1-3.88h1.08l-1.81,6.71H33.87l-1-3.6c-.08-.32-.16-.64-.23-1s-.15-.64-.23-1h-.06c-.07.34-.15.67-.22,1s-.16.64-.25,1L31,16.83H29.63Z" style="fill: #fff"/>
    <path d="M41.35,10.12h.95l.1,1h0a5.56,5.56,0,0,1,1-.81A2.36,2.36,0,0,1,44.7,10a1.82,1.82,0,0,1,1.56.66,3.27,3.27,0,0,1,.49,2v4.25H45.62v-4.1a2.38,2.38,0,0,0-.31-1.37,1.12,1.12,0,0,0-1-.42,1.67,1.67,0,0,0-.93.26,6.08,6.08,0,0,0-.92.77v4.86H41.35Z" style="fill: #fff"/>
    <path d="M48.41,13.49a4.08,4.08,0,0,1,.26-1.5,3.4,3.4,0,0,1,.69-1.11,2.89,2.89,0,0,1,1-.69,3.14,3.14,0,0,1,2.38,0,2.91,2.91,0,0,1,1,.69A3.41,3.41,0,0,1,54.41,12a4.08,4.08,0,0,1,.26,1.5A4,4,0,0,1,54.41,15a3.33,3.33,0,0,1-.69,1.1,2.94,2.94,0,0,1-1,.68,3.14,3.14,0,0,1-2.38,0,2.92,2.92,0,0,1-1-.68,3.32,3.32,0,0,1-.69-1.1A4,4,0,0,1,48.41,13.49Zm1.18,0a3.69,3.69,0,0,0,.14,1,2.48,2.48,0,0,0,.4.81,1.82,1.82,0,0,0,.62.52,1.78,1.78,0,0,0,1.59,0,1.83,1.83,0,0,0,.62-.52,2.49,2.49,0,0,0,.4-.81,3.69,3.69,0,0,0,.14-1,3.76,3.76,0,0,0-.14-1.06,2.58,2.58,0,0,0-.4-.82,1.8,1.8,0,0,0-.62-.53,1.78,1.78,0,0,0-1.59,0,1.79,1.79,0,0,0-.62.53,2.56,2.56,0,0,0-.4.82A3.76,3.76,0,0,0,49.59,13.49Z" style="fill: #fff"/>
    <path d="M56.49,11h-1v-.86l1.06-.07.14-1.88h1v1.88h1.82V11H57.64v3.73a1.7,1.7,0,0,0,.23,1,.91.91,0,0,0,.81.34,1.51,1.51,0,0,0,.39-.06,2.82,2.82,0,0,0,.38-.12l.22.86a5.8,5.8,0,0,1-.61.17,2.85,2.85,0,0,1-.65.08,2.22,2.22,0,0,1-.91-.17,1.56,1.56,0,0,1-.6-.46,1.77,1.77,0,0,1-.33-.7,4,4,0,0,1-.1-.91Z" style="fill: #fff"/>
    <path d="M60.3,13.49A4,4,0,0,1,60.56,12a3.45,3.45,0,0,1,.68-1.11,2.94,2.94,0,0,1,1-.7A2.72,2.72,0,0,1,63.33,10a2.85,2.85,0,0,1,1.15.22,2.23,2.23,0,0,1,.85.64,2.9,2.9,0,0,1,.52,1A4.34,4.34,0,0,1,66,13.1a3.8,3.8,0,0,1,0,.62H61.43a2.65,2.65,0,0,0,.67,1.73,2.08,2.08,0,0,0,1.58.64,2.68,2.68,0,0,0,.9-.15,4,4,0,0,0,.79-.38l.4.75a5.78,5.78,0,0,1-1,.48,3.45,3.45,0,0,1-1.24.21,3.31,3.31,0,0,1-1.27-.24,3,3,0,0,1-1-.69,3.2,3.2,0,0,1-.69-1.1A4.1,4.1,0,0,1,60.3,13.49ZM65,13a2.48,2.48,0,0,0-.44-1.58,1.49,1.49,0,0,0-1.23-.55,1.68,1.68,0,0,0-.69.15,1.91,1.91,0,0,0-.59.41,2.19,2.19,0,0,0-.44.66,3.07,3.07,0,0,0-.23.9Z" style="fill: #fff"/>
    <path d="M67.67,7h1.14V9.68l0,1.22a4.72,4.72,0,0,1,1-.67A2.47,2.47,0,0,1,70.89,10,2.61,2.61,0,0,1,72,10.2a2.3,2.3,0,0,1,.84.69A3.16,3.16,0,0,1,73.4,12a5.24,5.24,0,0,1,.17,1.4,4.64,4.64,0,0,1-.24,1.53A3.54,3.54,0,0,1,72.7,16a2.71,2.71,0,0,1-.93.71,2.63,2.63,0,0,1-1.11.24,2.52,2.52,0,0,1-1-.21,3.38,3.38,0,0,1-1-.61h0l-.1.66h-.92Zm1.14,8.34a2.84,2.84,0,0,0,.88.55,2.29,2.29,0,0,0,.77.16,1.64,1.64,0,0,0,.77-.19,1.85,1.85,0,0,0,.61-.52,2.58,2.58,0,0,0,.4-.84,4,4,0,0,0,.15-1.12,4.86,4.86,0,0,0-.1-1,2.26,2.26,0,0,0-.31-.78,1.5,1.5,0,0,0-.56-.5,1.73,1.73,0,0,0-.81-.18,2.82,2.82,0,0,0-1.81.91Z" style="fill: #fff"/>
    <path d="M74.9,13.49a4.07,4.07,0,0,1,.26-1.5,3.39,3.39,0,0,1,.69-1.11,2.91,2.91,0,0,1,1-.69,3.14,3.14,0,0,1,2.38,0,2.91,2.91,0,0,1,1,.69A3.41,3.41,0,0,1,80.9,12a4.1,4.1,0,0,1,.26,1.5A4.05,4.05,0,0,1,80.9,15a3.33,3.33,0,0,1-.69,1.1,2.94,2.94,0,0,1-1,.68,3.14,3.14,0,0,1-2.38,0,2.94,2.94,0,0,1-1-.68,3.31,3.31,0,0,1-.69-1.1A4,4,0,0,1,74.9,13.49Zm1.18,0a3.69,3.69,0,0,0,.14,1,2.46,2.46,0,0,0,.4.81,1.81,1.81,0,0,0,.62.52,1.77,1.77,0,0,0,1.58,0,1.81,1.81,0,0,0,.62-.52,2.46,2.46,0,0,0,.4-.81,3.69,3.69,0,0,0,.14-1,3.76,3.76,0,0,0-.14-1.06,2.54,2.54,0,0,0-.4-.82,1.79,1.79,0,0,0-.62-.53,1.77,1.77,0,0,0-1.58,0,1.79,1.79,0,0,0-.62.53,2.54,2.54,0,0,0-.4.82A3.76,3.76,0,0,0,76.08,13.49Z" style="fill: #fff"/>
    <path d="M82.44,13.49a4.07,4.07,0,0,1,.26-1.5,3.39,3.39,0,0,1,.69-1.11,2.91,2.91,0,0,1,1-.69,3.14,3.14,0,0,1,2.38,0,2.91,2.91,0,0,1,1,.69A3.41,3.41,0,0,1,88.44,12a4.1,4.1,0,0,1,.26,1.5A4.05,4.05,0,0,1,88.44,15a3.33,3.33,0,0,1-.69,1.1,2.94,2.94,0,0,1-1,.68,3.14,3.14,0,0,1-2.38,0,2.94,2.94,0,0,1-1-.68,3.31,3.31,0,0,1-.69-1.1A4,4,0,0,1,82.44,13.49Zm1.18,0a3.69,3.69,0,0,0,.14,1,2.46,2.46,0,0,0,.4.81,1.81,1.81,0,0,0,.62.52,1.77,1.77,0,0,0,1.58,0,1.81,1.81,0,0,0,.62-.52,2.46,2.46,0,0,0,.4-.81,3.69,3.69,0,0,0,.14-1,3.76,3.76,0,0,0-.14-1.06,2.54,2.54,0,0,0-.4-.82,1.79,1.79,0,0,0-.62-.53,1.77,1.77,0,0,0-1.58,0,1.79,1.79,0,0,0-.62.53,2.54,2.54,0,0,0-.4.82A3.76,3.76,0,0,0,83.62,13.49Z" style="fill: #fff"/>
    <path d="M90.38,7h1.13v6.66h0l2.88-3.54h1.27l-2.27,2.69,2.57,4H94.75l-2-3.23-1.27,1.46v1.77H90.38Z" style="fill: #fff"/>
  </g>
  <rect x="110" y="6.5" width="2" height="1" style="fill: #d10"/>
  <rect x="110" y="8.5" width="2" height="1" style="fill: #d10"/>
  <rect x="110" y="10.5" width="2" height="1" style="fill: #d10"/>
  <rect x="110" y="12.5" width="2" height="1" style="fill: #d10"/>
  <rect x="110" y="14.5" width="2" height="1" style="fill: #d10"/>
  <rect x="110" y="16.5" width="2" height="1" style="fill: #d10"/>
  <rect x="110" y="18.5" width="2" height="1" style="fill: #d10"/>
  <path d="M126,15l-1.75-2,1.68-1.92-2.38-.45.22-2.45-2.39.92L120.18,7l-1.33,2.09-2.38-1,.27,2.56-2.43.43,1.76,1.77L114,14.78l2.76.43-.43,2.7,2.45-1.24L120,19l1.27-2.32,2.25,1.17-.05-2.52Zm-5.84-7.36.92,1.63-1,1.29-.92-1.3Zm-1.13,7,1-1.39,1.08,1.35-1.07,1.51ZM120.21,11l1.78-.72,0,1.94-1.74.54Zm2.13.82,0-1.72,1-1.11-.15,1.73Zm-.26.74L123.19,14l-1.77.47-1.07-1.35Zm1.4,1.69,1.47.56-1.61.19L122,14.64Zm.43-1.08L125,14.48l-1.41-.54-1-1.22Zm.05-.35-1.52-.55,1-1.29,1.83.34Zm-1-4-.88,1-1.5.61.8-1Zm-3.1,3.88-1.65-.65-.06-1.75,1.69.67Zm-3.27,1.41,1.52.5-1.17.23-1.81-.28Zm1.48-4.22-.88-1.14,1.59.65.76,1.07Zm-.3.19.06,1.55-.74-.92L116.92,9Zm-.93.89.91,1.13-1.4.54L115,11.33Zm-.44,2,1.07-.41-1,1.21-1.44.45Zm.7,2.18,1.53-.31,0,1.42-1.88,1Zm-.19-1.32,1.18-1.46,1.67.66-1,1.4Zm4.61,1,1.63.45,0,2-1.77-.92Zm-2.52.42.88,1.27,0,1.39L119,16.38Zm1.22,2.65,0-1.4.9-1.27-.08,1.14Z" style="fill: #d10;stroke: #d10;stroke-miterlimit: 10;stroke-width: 0.25px"/>
</svg>
